<svg xmlns="http://www.w3.org/2000/svg" xmlns:xlink="http://www.w3.org/1999/xlink" width="500" zoomAndPan="magnify" viewBox="0 0 375 374.999991" height="500" preserveAspectRatio="xMidYMid meet" version="1.0"><defs><g/></defs><path fill="#cb8a46" d="M 216.183594 127.699219 C 231.835938 121.96875 243.609375 121.105469 247.203125 126.503906 C 253.71875 136.285156 230.925781 162.910156 196.296875 185.972656 C 161.664062 209.03125 128.3125 219.796875 121.796875 210.015625 C 118.203125 204.617188 123.539062 194.085938 134.863281 181.859375 C 119.917969 196.9375 112.503906 210.199219 116.835938 216.707031 C 124.027344 227.503906 160.851562 215.621094 199.085938 190.160156 C 237.316406 164.699219 262.480469 135.304688 255.289062 124.503906 C 250.957031 118 235.863281 119.726562 216.183594 127.699219 " fill-opacity="1" fill-rule="nonzero"/><path fill="#7b7979" d="M 210.238281 138.714844 C 220.183594 135.429688 227.558594 135.183594 229.941406 138.761719 C 232.527344 142.644531 228.691406 150.214844 220.550781 159.011719 C 231.292969 148.167969 236.628906 138.632812 233.511719 133.953125 C 230.761719 129.820312 221.984375 130.304688 210.238281 134.417969 L 210.238281 138.714844 " fill-opacity="1" fill-rule="nonzero"/><path fill="#7b7979" d="M 139.761719 198.816406 C 138.378906 196.734375 138.835938 193.597656 140.808594 189.785156 C 139.460938 188.78125 138.34375 187.613281 137.484375 186.328125 C 133.40625 192.328125 131.964844 197.273438 133.949219 200.253906 C 137.066406 204.933594 147.917969 203.6875 162.070312 197.957031 C 150.8125 202.078125 142.347656 202.699219 139.761719 198.816406 " fill-opacity="1" fill-rule="nonzero"/><path fill="#393536" d="M 145.535156 170.480469 C 146.472656 170.03125 147.46875 170.160156 147.761719 170.769531 C 148.050781 171.375 147.53125 172.234375 146.59375 172.683594 C 145.65625 173.132812 144.660156 173.003906 144.367188 172.398438 C 144.078125 171.789062 144.597656 170.933594 145.535156 170.480469 Z M 153.269531 167.359375 C 155.609375 167.066406 157.617188 167.683594 157.75 168.742188 C 157.878906 169.800781 156.089844 170.898438 153.746094 171.1875 C 151.402344 171.480469 149.398438 170.859375 149.265625 169.800781 C 149.132812 168.746094 150.925781 167.648438 153.269531 167.359375 Z M 156.738281 191.136719 C 165.378906 189.851562 171.839844 184.117188 172.105469 177.875 L 172.105469 146.410156 L 185.890625 165.644531 L 200.089844 144.167969 L 200.089844 180.746094 C 202.824219 178.835938 205.484375 176.902344 208.058594 174.953125 L 208.058594 128.074219 L 200.089844 128.074219 L 185.410156 157.996094 L 172.105469 141.75 L 164.140625 141.75 L 164.140625 167.292969 C 160.949219 166.011719 157.074219 165.539062 153.023438 166.140625 C 143.566406 167.546875 136.730469 174.28125 137.757812 181.183594 C 138.78125 188.085938 147.28125 192.542969 156.738281 191.136719 " fill-opacity="1" fill-rule="nonzero"/><path fill="#393536" d="M 225.070312 192.570312 C 224.871094 193.214844 223.90625 193.492188 222.914062 193.191406 C 221.921875 192.886719 221.273438 192.117188 221.472656 191.472656 C 221.667969 190.828125 222.632812 190.550781 223.625 190.855469 C 224.621094 191.15625 225.265625 191.925781 225.070312 192.570312 Z M 215.617188 192.792969 C 213.257812 192.859375 211.320312 192.046875 211.292969 190.984375 C 211.261719 189.917969 213.152344 189 215.511719 188.933594 C 217.871094 188.871094 219.808594 189.679688 219.835938 190.746094 C 219.867188 191.8125 217.976562 192.730469 215.617188 192.792969 Z M 219.171875 187.988281 C 215.121094 187.386719 211.246094 187.863281 208.058594 189.144531 L 208.058594 186.621094 C 205.523438 188.429688 202.933594 190.214844 200.292969 191.972656 C 200.222656 192.015625 200.15625 192.0625 200.089844 192.105469 L 200.089844 199.722656 C 200.355469 205.96875 206.816406 211.703125 215.460938 212.988281 C 224.914062 214.390625 233.414062 209.9375 234.441406 203.035156 C 235.46875 196.128906 228.632812 189.394531 219.171875 187.988281 " fill-opacity="1" fill-rule="nonzero"/><g fill="#000000" fill-opacity="1"><g transform="translate(26.78134, 249.752108)"><g><path d="M 15.40625 -16.546875 L 15.40625 0 L 13.53125 0 L 13.53125 -7.375 L 3.90625 -7.375 L 3.90625 0 L 2.03125 0 L 2.03125 -16.546875 L 3.90625 -16.546875 L 3.90625 -9.203125 L 13.53125 -9.203125 L 13.53125 -16.546875 Z M 15.40625 -16.546875 "/></g></g></g><g fill="#000000" fill-opacity="1"><g transform="translate(46.428615, 249.752108)"><g><path d="M 16.46875 0 L 14.40625 0 L 12.375 -4.796875 L 4.171875 -4.796875 L 2.15625 0 L 0.078125 0 L 7.09375 -16.546875 L 9.453125 -16.546875 Z M 11.65625 -6.53125 L 8.28125 -14.59375 L 4.90625 -6.53125 Z M 11.65625 -6.53125 "/></g></g></g><g fill="#000000" fill-opacity="1"><g transform="translate(65.201025, 249.752108)"><g><path d="M 3.90625 0 L 2.03125 0 L 2.03125 -16.546875 L 9.953125 -16.546875 C 11.628906 -16.546875 12.976562 -16.082031 14 -15.15625 C 15.019531 -14.238281 15.53125 -12.976562 15.53125 -11.375 C 15.53125 -9.3125 14.671875 -7.90625 12.953125 -7.15625 C 12.460938 -6.9375 11.988281 -6.773438 11.53125 -6.671875 L 15.875 0 L 13.65625 0 L 9.65625 -6.34375 L 3.90625 -6.34375 Z M 3.90625 -8.125 L 9.625 -8.125 C 11.394531 -8.125 12.613281 -8.675781 13.28125 -9.78125 C 13.53125 -10.195312 13.65625 -10.726562 13.65625 -11.375 C 13.65625 -12.425781 13.296875 -13.253906 12.578125 -13.859375 C 11.859375 -14.472656 10.90625 -14.78125 9.71875 -14.78125 L 3.90625 -14.78125 Z M 3.90625 -8.125 "/></g></g></g><g fill="#000000" fill-opacity="1"><g transform="translate(84.148406, 249.752108)"><g><path d="M 18.125 -16.546875 L 18.125 0 L 16.25 0 L 16.25 -13.703125 L 10.125 -5.828125 L 3.90625 -13.703125 L 3.90625 0 L 2.03125 0 L 2.03125 -16.546875 L 4.203125 -16.546875 L 10.125 -8.703125 L 15.953125 -16.546875 Z M 18.125 -16.546875 "/></g></g></g><g fill="#000000" fill-opacity="1"><g transform="translate(106.520242, 249.752108)"><g><path d="M 9.375 -16.75 C 11.84375 -16.75 13.867188 -15.925781 15.453125 -14.28125 C 17.003906 -12.675781 17.78125 -10.671875 17.78125 -8.265625 C 17.78125 -5.867188 17.003906 -3.875 15.453125 -2.28125 C 13.867188 -0.625 11.84375 0.203125 9.375 0.203125 C 6.90625 0.203125 4.878906 -0.625 3.296875 -2.28125 C 1.742188 -3.875 0.96875 -5.867188 0.96875 -8.265625 C 0.96875 -10.671875 1.742188 -12.675781 3.296875 -14.28125 C 4.878906 -15.925781 6.90625 -16.75 9.375 -16.75 Z M 9.375 -1.625 C 11.34375 -1.625 12.9375 -2.265625 14.15625 -3.546875 C 15.320312 -4.785156 15.90625 -6.363281 15.90625 -8.28125 C 15.90625 -10.195312 15.320312 -11.769531 14.15625 -13 C 12.9375 -14.28125 11.34375 -14.921875 9.375 -14.921875 C 7.40625 -14.921875 5.8125 -14.28125 4.59375 -13 C 3.425781 -11.769531 2.84375 -10.195312 2.84375 -8.28125 C 2.84375 -6.363281 3.425781 -4.785156 4.59375 -3.546875 C 5.8125 -2.265625 7.40625 -1.625 9.375 -1.625 Z M 9.375 -1.625 "/></g></g></g><g fill="#000000" fill-opacity="1"><g transform="translate(127.492305, 249.752108)"><g><path d="M 16.296875 -16.546875 L 16.296875 0 L 14.125 0 L 3.90625 -13.96875 L 3.90625 0 L 2.03125 0 L 2.03125 -16.546875 L 4.203125 -16.546875 L 14.421875 -2.625 L 14.421875 -16.546875 Z M 16.296875 -16.546875 "/></g></g></g><g fill="#000000" fill-opacity="1"><g transform="translate(148.039427, 249.752108)"><g><path d="M 8.796875 0 L 6.921875 0 L 6.921875 -6.546875 L -0.03125 -16.546875 L 2.25 -16.546875 L 7.84375 -8.5 L 13.453125 -16.546875 L 15.71875 -16.546875 L 8.796875 -6.546875 Z M 8.796875 0 "/></g></g></g><g fill="#000000" fill-opacity="1"><g transform="translate(165.986966, 249.752108)"><g/></g></g><g fill="#000000" fill-opacity="1"><g transform="translate(173.536153, 249.752108)"><g><path d="M 7.5 0 L 5.375 0 L 0.21875 -16.546875 L 2.203125 -16.546875 L 6.453125 -2.65625 L 10.90625 -16.546875 L 13.046875 -16.546875 L 17.5 -2.65625 L 21.75 -16.546875 L 23.71875 -16.546875 L 18.578125 0 L 16.453125 0 L 11.96875 -13.90625 Z M 7.5 0 "/></g></g></g><g fill="#000000" fill-opacity="1"><g transform="translate(199.707393, 249.752108)"><g><path d="M 16.46875 0 L 14.40625 0 L 12.375 -4.796875 L 4.171875 -4.796875 L 2.15625 0 L 0.078125 0 L 7.09375 -16.546875 L 9.453125 -16.546875 Z M 11.65625 -6.53125 L 8.28125 -14.59375 L 4.90625 -6.53125 Z M 11.65625 -6.53125 "/></g></g></g><g fill="#000000" fill-opacity="1"><g transform="translate(218.479799, 249.752108)"><g><path d="M 3.90625 0 L 2.03125 0 L 2.03125 -16.546875 L 9.953125 -16.546875 C 11.628906 -16.546875 12.976562 -16.082031 14 -15.15625 C 15.019531 -14.238281 15.53125 -12.976562 15.53125 -11.375 C 15.53125 -9.3125 14.671875 -7.90625 12.953125 -7.15625 C 12.460938 -6.9375 11.988281 -6.773438 11.53125 -6.671875 L 15.875 0 L 13.65625 0 L 9.65625 -6.34375 L 3.90625 -6.34375 Z M 3.90625 -8.125 L 9.625 -8.125 C 11.394531 -8.125 12.613281 -8.675781 13.28125 -9.78125 C 13.53125 -10.195312 13.65625 -10.726562 13.65625 -11.375 C 13.65625 -12.425781 13.296875 -13.253906 12.578125 -13.859375 C 11.859375 -14.472656 10.90625 -14.78125 9.71875 -14.78125 L 3.90625 -14.78125 Z M 3.90625 -8.125 "/></g></g></g><g fill="#000000" fill-opacity="1"><g transform="translate(237.427186, 249.752108)"><g><path d="M 3.90625 -14.75 L 3.90625 -9.203125 L 13.09375 -9.203125 L 13.09375 -7.375 L 3.90625 -7.375 L 3.90625 -1.796875 L 14.203125 -1.796875 L 14.203125 0 L 2.03125 0 L 2.03125 -16.546875 L 14.203125 -16.546875 L 14.203125 -14.75 Z M 3.90625 -14.75 "/></g></g></g><g fill="#000000" fill-opacity="1"><g transform="translate(254.849808, 249.752108)"><g><path d="M 15.40625 -16.546875 L 15.40625 0 L 13.53125 0 L 13.53125 -7.375 L 3.90625 -7.375 L 3.90625 0 L 2.03125 0 L 2.03125 -16.546875 L 3.90625 -16.546875 L 3.90625 -9.203125 L 13.53125 -9.203125 L 13.53125 -16.546875 Z M 15.40625 -16.546875 "/></g></g></g><g fill="#000000" fill-opacity="1"><g transform="translate(274.497092, 249.752108)"><g><path d="M 9.375 -16.75 C 11.84375 -16.75 13.867188 -15.925781 15.453125 -14.28125 C 17.003906 -12.675781 17.78125 -10.671875 17.78125 -8.265625 C 17.78125 -5.867188 17.003906 -3.875 15.453125 -2.28125 C 13.867188 -0.625 11.84375 0.203125 9.375 0.203125 C 6.90625 0.203125 4.878906 -0.625 3.296875 -2.28125 C 1.742188 -3.875 0.96875 -5.867188 0.96875 -8.265625 C 0.96875 -10.671875 1.742188 -12.675781 3.296875 -14.28125 C 4.878906 -15.925781 6.90625 -16.75 9.375 -16.75 Z M 9.375 -1.625 C 11.34375 -1.625 12.9375 -2.265625 14.15625 -3.546875 C 15.320312 -4.785156 15.90625 -6.363281 15.90625 -8.28125 C 15.90625 -10.195312 15.320312 -11.769531 14.15625 -13 C 12.9375 -14.28125 11.34375 -14.921875 9.375 -14.921875 C 7.40625 -14.921875 5.8125 -14.28125 4.59375 -13 C 3.425781 -11.769531 2.84375 -10.195312 2.84375 -8.28125 C 2.84375 -6.363281 3.425781 -4.785156 4.59375 -3.546875 C 5.8125 -2.265625 7.40625 -1.625 9.375 -1.625 Z M 9.375 -1.625 "/></g></g></g><g fill="#000000" fill-opacity="1"><g transform="translate(295.469168, 249.752108)"><g><path d="M 15.90625 -16.546875 L 15.90625 -7.125 C 15.90625 -4.925781 15.25 -3.15625 13.9375 -1.8125 C 12.625 -0.46875 10.925781 0.203125 8.84375 0.203125 C 6.78125 0.203125 5.09375 -0.46875 3.78125 -1.8125 C 2.476562 -3.15625 1.828125 -4.925781 1.828125 -7.125 L 1.828125 -16.546875 L 3.703125 -16.546875 L 3.703125 -7.078125 C 3.703125 -5.296875 4.234375 -3.90625 5.296875 -2.90625 C 6.210938 -2.050781 7.394531 -1.625 8.84375 -1.625 C 10.300781 -1.625 11.492188 -2.050781 12.421875 -2.90625 C 13.492188 -3.882812 14.03125 -5.273438 14.03125 -7.078125 L 14.03125 -16.546875 Z M 15.90625 -16.546875 "/></g></g></g><g fill="#000000" fill-opacity="1"><g transform="translate(315.416401, 249.752108)"><g><path d="M 3.921875 -14 C 3.609375 -13.726562 3.394531 -13.425781 3.28125 -13.09375 C 3.175781 -12.757812 3.125 -12.40625 3.125 -12.03125 C 3.125 -11.65625 3.285156 -11.3125 3.609375 -11 C 3.929688 -10.6875 4.359375 -10.421875 4.890625 -10.203125 C 5.429688 -9.984375 6.039062 -9.789062 6.71875 -9.625 C 7.40625 -9.457031 8.101562 -9.285156 8.8125 -9.109375 C 9.519531 -8.929688 10.210938 -8.726562 10.890625 -8.5 C 11.578125 -8.28125 12.1875 -8 12.71875 -7.65625 C 13.90625 -6.90625 14.5 -5.878906 14.5 -4.578125 C 14.5 -3.023438 13.921875 -1.835938 12.765625 -1.015625 C 11.609375 -0.203125 10.003906 0.203125 7.953125 0.203125 C 5.628906 0.203125 3.863281 -0.28125 2.65625 -1.25 C 1.570312 -2.113281 0.953125 -3.347656 0.796875 -4.953125 L 2.75 -4.953125 C 2.8125 -3.816406 3.363281 -2.945312 4.40625 -2.34375 C 5.300781 -1.832031 6.488281 -1.578125 7.96875 -1.578125 C 11.070312 -1.578125 12.625 -2.550781 12.625 -4.5 C 12.625 -5.164062 12.34375 -5.691406 11.78125 -6.078125 C 11.226562 -6.460938 10.53125 -6.78125 9.6875 -7.03125 C 8.84375 -7.28125 7.929688 -7.507812 6.953125 -7.71875 C 5.984375 -7.9375 5.078125 -8.21875 4.234375 -8.5625 C 3.390625 -8.90625 2.6875 -9.351562 2.125 -9.90625 C 1.570312 -10.46875 1.296875 -11.222656 1.296875 -12.171875 C 1.296875 -13.523438 1.8125 -14.625 2.84375 -15.46875 C 3.882812 -16.320312 5.445312 -16.75 7.53125 -16.75 C 9.625 -16.75 11.25 -16.265625 12.40625 -15.296875 C 13.445312 -14.453125 14.003906 -13.363281 14.078125 -12.03125 L 12.15625 -12.03125 C 11.988281 -13.394531 11.101562 -14.300781 9.5 -14.75 C 8.9375 -14.914062 8.234375 -15 7.390625 -15 C 6.546875 -15 5.835938 -14.898438 5.265625 -14.703125 C 4.691406 -14.515625 4.242188 -14.28125 3.921875 -14 Z M 3.921875 -14 "/></g></g></g><g fill="#000000" fill-opacity="1"><g transform="translate(333.014002, 249.752108)"><g><path d="M 3.90625 -14.75 L 3.90625 -9.203125 L 13.09375 -9.203125 L 13.09375 -7.375 L 3.90625 -7.375 L 3.90625 -1.796875 L 14.203125 -1.796875 L 14.203125 0 L 2.03125 0 L 2.03125 -16.546875 L 14.203125 -16.546875 L 14.203125 -14.75 Z M 3.90625 -14.75 "/></g></g></g></svg>